<?xml version="1.0" encoding="UTF-8" standalone="no"?>
<svg
   width="40"
   height="40"
   viewBox="0 0 40 40"
   version="1.1"
   id="svg1"
   xmlns="http://www.w3.org/2000/svg"
   xmlns:svg="http://www.w3.org/2000/svg">
  <defs
     id="defs1" />
  <!-- Generator: Sketch 61 (89581) - https://sketch.com -->
  <title
     id="title1">White Logo Square </title>
  <desc
     id="desc1">Created with Sketch.</desc>
  <g
     id="White-Logo-Square-"
     stroke="none"
     stroke-width="1"
     fill="none"
     fill-rule="evenodd"
     transform="matrix(1.0000017,0,0,1,4.21,0)">
    <path
       d="m 16.258224,9.230769 c 1.751644,0 3.947368,-1.220597 5.254934,-2.848061 1.18421,-1.474889 2.047697,-3.534647 2.047697,-5.594405 0,-0.279721 -0.02467,-0.559441 -0.07401,-0.788303 -1.949013,0.07629 -4.292763,1.347743 -5.699013,3.051494 -1.110197,1.296885 -2.121711,3.331214 -2.121711,5.416402 0,0.305149 0.04934,0.610299 0.07401,0.712015 0.123355,0.02543 0.320723,0.05086 0.518092,0.05086 z M 10.090461,40 c 2.393092,0 3.453947,-1.652893 6.439144,-1.652893 3.03454,0 3.700658,1.602035 6.365132,1.602035 2.615131,0 4.366776,-2.492054 6.019737,-4.933249 1.850329,-2.797203 2.615131,-5.543547 2.664473,-5.670693 -0.172697,-0.05086 -5.180921,-2.161475 -5.180921,-8.086459 0,-5.136681 3.947369,-7.450731 4.169408,-7.628735 -2.615131,-3.865225 -6.587171,-3.966942 -7.672697,-3.966942 -2.935855,0 -5.328948,1.830897 -6.833882,1.830897 -1.628289,0 -3.774671,-1.72918 -6.3157894,-1.72918 C 4.909539,9.764781 0,13.884297 0,21.665607 0,26.497139 1.825658,31.608392 4.070724,34.914177 5.9950656,37.71138 7.6726966,40 10.090461,40 Z"
       id=""
       fill="#ffffff"
       fill-rule="nonzero"
       style="stroke-width:2.10526" />
  </g>
</svg>
